<svg width="122" height="36" fill="none" xmlns="http://www.w3.org/2000/svg"><path fill-rule="evenodd" clip-rule="evenodd" d="M59.862 12.826c-1.034 0-1.87.835-1.87 1.83v13.812c0 1.035.836 1.87 1.87 1.87s1.87-.835 1.87-1.87V14.656c0-.995-.835-1.83-1.87-1.83zm0-6.886a2.123 2.123 0 00-2.109 2.11c0 1.154.955 2.149 2.11 2.149 1.153 0 2.109-.955 2.109-2.15a2.124 2.124 0 00-2.11-2.109zm18.227 8.717c0-1.155-.915-1.593-1.751-1.593h-9.273c-.915 0-1.631.717-1.631 1.593 0 .915.716 1.631 1.631 1.631h6.09l-7.88 10.986a1.95 1.95 0 00-.358 1.114 1.74 1.74 0 001.71 1.791h9.83c.916 0 1.632-.716 1.632-1.632 0-.915-.716-1.631-1.632-1.631h-6.606l7.72-10.747c.399-.557.518-1.035.518-1.512zm-27.3 8.676c0 2.27-.995 3.662-3.263 3.662-2.269 0-3.224-1.393-3.224-3.662V16.29h3.383c2.746 0 3.104 1.512 3.104 3.184v3.86zm3.74-3.94c0-3.86-2.029-6.368-6.765-6.368h-3.422V7.81c0-1.035-.836-1.87-1.83-1.87-1.035 0-1.87.835-1.87 1.87v15.523c0 3.86 2.068 7.005 6.963 7.005 4.855 0 6.965-3.184 6.965-7.005v-3.94h-.04zm38.165-6.567c-1.035 0-1.87.836-1.87 1.87v8.637c0 2.27-.995 3.662-3.264 3.662-2.268 0-3.223-1.393-3.223-3.662v-8.637c0-1.034-.836-1.87-1.83-1.87a1.869 1.869 0 00-1.871 1.87v8.637c0 3.861 2.07 7.006 6.964 7.006 4.855 0 6.964-3.185 6.964-7.006v-8.637c-.04-1.034-.875-1.87-1.87-1.87zm28.374 7.045c0-3.861-1.79-7.005-6.645-7.005-2.189 0-3.741.637-4.816 1.711-1.074-1.035-2.626-1.711-4.815-1.711-4.855 0-6.646 3.184-6.646 7.005v8.637c0 1.035.836 1.87 1.83 1.87a1.868 1.868 0 001.871-1.87V19.87c0-2.269.716-3.662 2.945-3.662 2.268 0 2.945 1.393 2.945 3.662v8.637c0 1.035.836 1.87 1.83 1.87a1.869 1.869 0 001.871-1.87V19.87c0-2.269.716-3.662 2.945-3.662 2.268 0 2.945 1.393 2.945 3.662v8.637c0 1.035.835 1.87 1.83 1.87a1.869 1.869 0 001.871-1.87l.039-8.637zM6.616 12.866a2.928 2.928 0 004.099-.637l3.422-4.737a2.929 2.929 0 00-.637-4.1 2.928 2.928 0 00-4.099.638L5.94 8.766c-.915 1.313-.637 3.144.677 4.1zm15.68-6.687a2.928 2.928 0 00-4.1.637L4.426 25.76a2.929 2.929 0 00.638 4.1 2.928 2.928 0 004.099-.637l13.769-18.946c.995-1.313.676-3.144-.637-4.1zM5.301 4.666a2.929 2.929 0 00-.636-4.1 2.928 2.928 0 00-4.1.638 2.929 2.929 0 00.637 4.1 2.928 2.928 0 004.1-.638zm20.893 26.03a2.928 2.928 0 00-4.099.638 2.929 2.929 0 00.637 4.1 2.928 2.928 0 004.099-.638 2.929 2.929 0 00-.637-4.1zm-5.372-7.522a2.928 2.928 0 00-4.1.637l-3.461 4.736a2.929 2.929 0 00.636 4.1 2.928 2.928 0 004.1-.637l3.462-4.736a2.929 2.929 0 00-.637-4.1z" fill="#fff"/></svg>